<?xml version="1.0" standalone="no"?><!DOCTYPE svg PUBLIC "-//W3C//DTD SVG 1.1//EN" "http://www.w3.org/Graphics/SVG/1.1/DTD/svg11.dtd"><svg class="icon" width="200px" height="200.00px" viewBox="0 0 1024 1024" version="1.1" xmlns="http://www.w3.org/2000/svg"><path fill="#999999" d="M915.78368 168.07936 769.26976 171.8272l5.07904-49.11104L247.76704 124.04736l5.20192 48.61952L108.21632 173.64992l3.70688 22.3232c0 0 32.93184 214.2208 37.92896 228.7616 4.97664 14.5408 7.33184 21.31968 7.33184 21.31968 27.136 57.48736 105.08288 97.91488 170.98752 102.52288 5.07904 6.2464 10.36288 12.45184 16.15872 18.69824 38.72768 41.65632 90.5216 63.30368 147.31264 67.19488l0.512 272.87552-159.68256-1.82272-0.02048 0c-10.6496 0-19.29216 12.14464-19.31264 22.79424s8.6016 22.81472 19.29216 22.8352l356.94592 0.49152 0.02048 0c10.6496 0 19.29216-10.38336 19.31264-21.05344s-8.6016-21.07392-19.29216-21.07392l-158.6176-1.78176-0.53248-273.34656c56.81152-3.97312 109.62944-25.23136 147.5584-63.97952l0.06144 1.65888c8.21248-8.704 15.72864-18.39104 22.65088-28.75392 72.15104-6.84032 156.07808-54.92736 173.1584-126.85312l0.06144-0.04096c0.16384-1.024 0.36864-2.17088 0.53248-3.39968l0.88064-5.2224-0.16384-0.04096c1.3312-6.79936 2.78528-15.21664 4.52608-25.55904L915.78368 168.07936zM188.2112 419.6352c-0.24576-1.51552-0.512-3.11296-0.83968-4.75136L186.4704 409.3952l-0.16384 0.02048c-0.94208-6.63552-2.27328-14.66368-3.87072-24.33024L153.72288 211.968l103.36256-0.69632 22.50752 210.71872 0.18432 0.86016L279.7568 422.85056l1.86368 19.31264 0.69632 0c3.72736 24.96512 9.95328 45.09696 18.2272 62.85312C250.61376 492.11392 198.3488 457.97376 188.2112 419.6352zM837.12 401.3056l-1.24928 7.49568c-10.46528 43.76576-61.87008 78.6432-112.49664 91.50464 10.09664-24.22784 17.05984-50.5856 20.04992-77.98784l21.87264-211.7632 104.61184-2.68288C861.65504 256.512 842.81344 367.69792 837.12 401.3056z" /></svg>