<?xml version="1.0" standalone="no"?><!DOCTYPE svg PUBLIC "-//W3C//DTD SVG 1.1//EN" "http://www.w3.org/Graphics/SVG/1.1/DTD/svg11.dtd"><svg class="icon" width="200px" height="200.00px" viewBox="0 0 1024 1024" version="1.1" xmlns="http://www.w3.org/2000/svg"><path fill="#999999" d="M335.476364 830.231273c-21.946182 53.224727-66.792727 86.737455-66.792728 86.737454s88.203636 18.967273 171.333819-60.788363c23.435636 3.234909 47.476364 4.910545 71.982545 4.910545 244.200727 0 442.181818-166.702545 442.181818-372.363636S756.200727 116.363636 512 116.363636 69.818182 283.066182 69.818182 488.727273c0 152.808727 109.312 284.113455 265.658182 341.504z m109.707636 96.954182c-175.104 97.512727-294.632727 23.109818-294.632727 23.109818s49.92-26.949818 94.626909-84.107637C98.141091 788.503273 0 648.517818 0 488.727273 0 244.526545 229.236364 46.545455 512 46.545455s512 197.981091 512 442.181818-229.236364 442.181818-512 442.181818c-22.644364 0-44.939636-1.28-66.792727-3.723636z m159.930182-473.157819a34.909091 34.909091 0 0 1 17.501091-30.440727l80.546909-46.498909a34.909091 34.909091 0 0 1 34.909091 60.462545l-29.509818 17.035637 29.509818 17.035636a34.909091 34.909091 0 1 1-34.909091 60.462546l-80.546909-46.498909A34.885818 34.885818 0 0 1 605.090909 454.050909zM342.109091 405.248c32 0 58.181818 26.693818 58.181818 59.322182 0 32.605091-26.181818 59.298909-58.181818 59.298909s-58.181818-26.693818-58.181818-59.298909c0-32.628364 26.181818-59.345455 58.181818-59.345455z" /></svg>