<?xml version="1.0" standalone="no"?><!DOCTYPE svg PUBLIC "-//W3C//DTD SVG 1.1//EN" "http://www.w3.org/Graphics/SVG/1.1/DTD/svg11.dtd"><svg class="icon" width="200px" height="200.00px" viewBox="0 0 1024 1024" version="1.1" xmlns="http://www.w3.org/2000/svg"><path fill="#999999" d="M571.733333 377.173333c-25.6 8.533333-42.666667 25.6-51.2 42.666667-8.533333 25.6 0 42.666667 17.066667 59.733333 51.2 51.2 51.2 136.533333 0 187.733334L349.866667 863.573333c-25.6 25.6-59.733333 34.133333-93.866667 34.133334-34.133333 0-68.266667-8.533333-93.866667-34.133334-51.2-51.2-51.2-136.533333 0-187.733333l85.333334-85.333333c17.066667-17.066667 25.6-42.666667 17.066666-59.733334 0-25.6-17.066667-42.666667-42.666666-42.666666-25.6-8.533333-42.666667 0-59.733334 17.066666l-85.333333 85.333334C25.6 633.173333 0 701.44 0 769.706667s25.6 128 76.8 179.2c25.6 25.6 51.2 42.666667 85.333333 51.2 25.6 17.066667 59.733333 25.6 93.866667 25.6 34.133333 0 68.266667-8.533333 93.866667-17.066667 34.133333-17.066667 59.733333-34.133333 85.333333-51.2l196.266667-196.266667c102.4-102.4 102.4-264.533333 0-358.4-17.066667-25.6-42.666667-25.6-59.733334-25.6M947.2 76.8C904.533333 25.6 836.266667 0 768 0S640 25.6 588.8 76.8L392.533333 264.533333c-102.4 102.4-102.4 264.533333 0 358.4 17.066667 17.066667 34.133333 25.6 51.2 25.6 25.6 0 51.2-17.066667 59.733334-34.133333 8.533333-25.6 8.533333-51.2-17.066667-68.266667-51.2-51.2-51.2-136.533333 0-187.733333L682.666667 162.133333c17.066667-25.6 51.2-34.133333 85.333333-34.133333s68.266667 17.066667 93.866667 34.133333c51.2 51.2 51.2 136.533333 0 187.733334l-85.333334 85.333333c-17.066667 17.066667-25.6 42.666667-17.066666 59.733333 8.533333 25.6 25.6 42.666667 42.666666 42.666667 25.6 8.533333 42.666667 0 59.733334-17.066667l85.333333-85.333333c102.4-102.4 102.4-264.533333 0-358.4" /></svg>