<?xml version="1.0" standalone="no"?><!DOCTYPE svg PUBLIC "-//W3C//DTD SVG 1.1//EN" "http://www.w3.org/Graphics/SVG/1.1/DTD/svg11.dtd"><svg class="icon" width="200px" height="200.00px" viewBox="0 0 1024 1024" version="1.1" xmlns="http://www.w3.org/2000/svg"><path fill="#999999" d="M760.414815 951.308642h57.520987v61.31358h-57.520987v-61.31358zM935.506173 682.666667c-8.217284 15.802469-27.180247 36.661728-55.624692 63.209876-30.97284 29.708642-49.935802 51.2-56.888888 65.106173-6.953086 13.906173-10.745679 37.293827-10.745679 69.530864h-51.832099c1.264198-29.708642 6.320988-54.360494 13.906173-74.587654 8.217284-20.22716 27.180247-44.879012 55.624691-74.587654 28.444444-29.708642 46.775309-49.935802 54.360494-62.577778 7.585185-12.641975 10.745679-27.812346 10.745679-46.14321 0-27.812346-8.849383-49.935802-27.180247-67.634568-18.330864-17.066667-42.982716-25.283951-73.955556-25.283951-66.37037 0-103.032099 39.822222-109.353086 118.20247h-48.039506c1.264198-30.340741 5.05679-54.360494 11.377778-71.427161 6.320988-17.066667 18.330864-32.869136 34.133333-46.775309 15.802469-13.906173 33.501235-25.283951 53.728395-30.972839 19.595062-6.320988 39.822222-10.11358 61.31358-10.11358 44.246914 0 80.908642 12.641975 108.720988 37.293827 27.812346 25.283951 42.350617 58.785185 42.350617 101.767901 0.632099 21.491358-3.792593 39.822222-12.641975 54.992593z m0 0M544.869136 1012.622222H159.920988c-46.775309 0-85.333333-37.925926-85.333334-85.333333V96.079012c0-46.775309 37.925926-85.333333 85.333334-85.333333h661.175308c46.775309 0 85.333333 37.925926 85.333334 85.333333v273.698766c0 13.906173-10.745679 25.283951-25.283951 25.28395s-25.283951-10.745679-25.283951-25.28395V96.079012c0-19.595062-15.802469-34.765432-34.765432-34.765432H159.920988c-19.595062 0-34.765432 15.802469-34.765432 34.765432v831.209877c0 19.595062 15.802469 34.765432 34.765432 34.765432h384.316049c13.906173 0 25.283951 10.745679 25.283951 25.283951 0 13.906173-10.745679 25.283951-24.651852 25.28395z m0 0M744.612346 251.575309H249.046914c-13.274074 0-25.283951-10.745679-25.283951-25.283951 0-13.274074 10.745679-25.283951 25.283951-25.283951h495.565432c13.274074 0 25.283951 10.745679 25.28395 25.283951s-11.377778 25.283951-25.28395 25.283951z m0 181.412345H249.046914c-13.274074 0-25.283951-10.745679-25.283951-25.28395 0-13.274074 10.745679-25.283951 25.283951-25.283951h495.565432c13.274074 0 25.283951 10.745679 25.28395 25.283951 0 13.906173-11.377778 25.283951-25.28395 25.28395zM486.716049 614.4H249.046914c-13.274074 0-25.283951-10.745679-25.283951-25.283951 0-13.274074 10.745679-25.283951 25.283951-25.28395H486.716049c13.274074 0 25.283951 10.745679 25.283951 25.28395 0 13.906173-11.377778 25.283951-25.283951 25.283951z m0 0M615.664198 795.180247h-366.617284c-13.274074 0-25.283951-10.745679-25.283951-25.283951 0-13.274074 10.745679-25.283951 25.283951-25.28395h366.617284c13.274074 0 25.283951 10.745679 25.28395 25.28395s-11.377778 25.283951-25.28395 25.283951z m0 0" /></svg>