<?xml version="1.0" standalone="no"?><!DOCTYPE svg PUBLIC "-//W3C//DTD SVG 1.1//EN" "http://www.w3.org/Graphics/SVG/1.1/DTD/svg11.dtd"><svg class="icon" width="200px" height="200.00px" viewBox="0 0 1024 1024" version="1.1" xmlns="http://www.w3.org/2000/svg"><path fill="#999999" d="M512 787.692308a391.483077 391.483077 0 0 1-196.923077-53.169231V1024l196.923077-118.153846 196.923077 118.153846v-289.476923A391.483077 391.483077 0 0 1 512 787.692308zM512 0a393.846154 393.846154 0 1 0 393.846154 393.846154A393.846154 393.846154 0 0 0 512 0z m0 708.923077a315.076923 315.076923 0 1 1 315.076923-315.076923 315.076923 315.076923 0 0 1-315.076923 315.076923zM512 393.846154m-275.692308 0a275.692308 275.692308 0 1 0 551.384616 0 275.692308 275.692308 0 1 0-551.384616 0Z" /></svg>