<?xml version="1.0" standalone="no"?><!DOCTYPE svg PUBLIC "-//W3C//DTD SVG 1.1//EN" "http://www.w3.org/Graphics/SVG/1.1/DTD/svg11.dtd"><svg class="icon" width="200px" height="200.00px" viewBox="0 0 1024 1024" version="1.1" xmlns="http://www.w3.org/2000/svg"><path fill="#d81e06" d="M643.18 513.392 993.102 176.172c34.278-33.03 34.278-86.586 0-119.616l-15.514-14.952c-34.278-33.03-89.848-33.03-124.126 0L512.124 370.552 170.784 41.604c-34.276-33.03-89.848-33.03-124.122 0l-15.518 14.952c-34.274 33.03-34.274 86.586 0 119.616L380.84 513.172 30.918 850.39c-34.274 33.03-34.274 86.586 0 119.616l15.514 14.956c34.278 33.028 89.85 33.028 124.126 0l341.338-328.946 341.34 328.946c34.276 33.028 89.848 33.028 124.122 0l15.518-14.956c34.274-33.03 34.274-86.586 0-119.616L643.18 513.392z" /></svg>